Coordinates
version=1
nRows=24
nColumns=24
inDegrees=yes

Units are S.I. units (second, meters, Newtons, ...)
Angles are in degrees.

endheader
time	pelvis_tilt	pelvis_list	pelvis_rotation	pelvis_tx	pelvis_ty	pelvis_tz	hip_flexion_r	hip_adduction_r	hip_rotation_r	knee_angle_r	ankle_angle_r	subtalar_angle_r	mtp_angle_r	hip_flexion_l	hip_adduction_l	hip_rotation_l	knee_angle_l	ankle_angle_l	subtalar_angle_l	mtp_angle_l	lumbar_extension	lumbar_bending	lumbar_rotation
      0.54200000	      0.31558142	      0.85473652	      7.77425725	     -0.75971202	      0.89331533	      0.29713148	     24.83105721	     -0.57983130	    -10.33618381	     -3.16998618	      3.21445159	     -0.47851363	      5.61432004	    -17.65588643	      0.47792934	      4.58064766	     -9.09089663	     17.29874941	      2.78334002	      8.46396324	     -9.12563967	     -1.76335650	     -9.70913391
      0.54616667	      0.31227654	      0.81403733	      7.85753601	     -0.75391265	      0.89232324	      0.29737536	     24.92560092	     -0.48809823	    -10.07827491	     -3.64879238	      3.26159111	     -0.63284210	      5.56921119	    -17.71121904	      0.34037392	      4.59397376	     -9.77684338	     17.44848388	      2.97096293	      8.55030833	     -9.10405316	     -1.62766042	     -9.73496046
      0.55033333	      0.27571666	      0.75646724	      7.91571189	     -0.74808002	      0.89129706	      0.29769447	     25.06518843	     -0.36717880	     -9.78052313	     -4.20340036	      3.14391012	     -0.95525112	      5.51541658	    -17.67463855	      0.18118808	      4.40491713	    -10.57961553	     17.54351203	      3.38561723	      8.73517311	     -9.03597252	     -1.50487969	     -9.68475229
      0.55450000	      0.27040650	      0.69573658	      7.96629585	     -0.74221394	      0.89033743	      0.29802075	     25.18095504	     -0.23610834	     -9.46485768	     -4.85221290	      3.12123862	     -1.28682183	      5.50328628	    -17.68863958	      0.02766547	      4.35553087	    -11.36012219	     17.67264256	      3.58487533	      8.87463786	     -9.00438899	     -1.35256526	     -9.63458137
      0.55866667	      0.29151129	      0.58609499	      8.00852285	     -0.73625582	      0.88944692	      0.29839509	     25.25404812	     -0.03948064	     -9.18745259	     -5.51431140	      2.90418177	     -1.73519186	      5.50374628	    -17.66838006	     -0.20652334	      4.03876425	    -12.25094284	     17.75380965	      4.15398457	      9.38037871	     -8.98237755	     -1.14446542	     -9.54478347
      0.56283333	      0.24347425	      0.53017202	      8.03414444	     -0.73034143	      0.88848943	      0.29877497	     25.45194774	      0.09092667	     -8.87912563	     -6.33800076	      2.77155370	     -2.15186201	      5.51754580	    -17.61301540	     -0.33976927	      4.00201327	    -13.07802622	     17.72027348	      4.23560843	      9.55592943	     -8.89883441	     -1.01865562	     -9.47136155
      0.56700000	      0.28722409	      0.38926571	      8.05883170	     -0.72428689	      0.88769032	      0.29919440	     25.50076176	      0.33597873	     -8.60227745	     -7.08209404	      2.44866983	     -2.72639715	      5.60573714	    -17.58911069	     -0.61217164	      3.65658197	    -14.02981154	     17.74073623	      4.79355814	     10.29465071	     -8.88335049	     -0.76186056	     -9.33553702
      0.57116667	      0.23323094	      0.33402395	      8.05654752	     -0.71829811	      0.88679848	      0.29959583	     25.72940511	      0.47312747	     -8.32931381	     -8.02896979	      2.23390886	     -3.18159020	      5.63442233	    -17.49974856	     -0.72887487	      3.62744417	    -14.91357778	     17.59470873	      4.80607483	     10.50108250	     -8.77235131	     -0.63591170	     -9.24848386
      0.57533333	      0.24355782	      0.20854123	      8.06656211	     -0.71219627	      0.88602691	      0.30003658	     25.85663935	      0.69544145	     -8.11066598	     -8.92501141	      1.86084144	     -3.71459451	      6.45349455	    -17.42181911	     -0.97594361	      3.31573980	    -15.88555828	     17.38314391	      5.19256461	     15.62784303	     -8.71748579	     -0.41223487	     -9.18373386
      0.57950000	      0.22211329	      0.11325663	      8.04250021	     -0.70610832	      0.88525277	      0.30049469	     26.04119662	      0.89439358	     -7.83164274	     -9.89146937	      1.52966396	     -4.27634946	      6.44627309	    -17.33213694	     -1.14072221	      3.21713405	    -16.83969843	     17.18193185	      5.20020137	     15.68199404	     -8.63380094	     -0.22771295	     -8.98423330
      0.58366667	      0.19900627	      0.00962647	      8.01815430	     -0.69998442	      0.88452012	      0.30096703	     26.22776043	      1.10133890	     -7.58633990	    -10.87277164	      1.13038797	     -4.85002280	      6.44717129	    -17.19869336	     -1.32647203	      3.03609095	    -17.86812488	     16.91126847	      5.36819819	     15.79412971	     -8.53113545	     -0.03018942	     -8.81046955
      0.58783333	      0.25651397	     -0.15511522	      7.99610213	     -0.69378281	      0.88394212	      0.30147160	     26.29744541	      1.38891599	     -7.36822582	    -11.79452009	      0.67237853	     -5.47577784	      6.47878247	    -17.11399977	     -1.61117309	      2.73045486	    -18.96069736	     16.66190982	      5.70826686	     16.24930295	     -8.52105751	      0.25454783	     -8.60206014
      0.59200000	      0.24219080	     -0.28246586	      7.97080169	     -0.68760952	      0.88330916	      0.30196253	     26.48025145	      1.61857964	     -7.17688963	    -12.80963666	      0.26955212	     -6.04482648	      6.53518810	    -16.93456039	     -1.82750365	      2.54482623	    -20.08531360	     16.32645532	      5.84465468	     17.02286996	     -8.42280337	      0.48876155	     -8.38441448
      0.59616667	      0.23029062	     -0.36301288	      7.90174063	     -0.68142786	      0.88273290	      0.30247996	     26.69086019	      1.80466432	     -6.98912490	    -13.90824476	     -0.07981460	     -6.43729775	      6.80117049	    -16.76413556	     -1.97460851	      2.35296798	    -21.18252337	     15.77658719	      5.81432080	     21.26619550	     -8.33913558	      0.65354867	     -8.32062138
      0.60033333	      0.20930429	     -0.45443488	      7.84744683	     -0.67523226	      0.88220540	      0.30297674	     26.90540877	      1.99177774	     -6.83320495	    -15.00723652	     -0.37621345	     -6.81658033	      6.79256433	    -16.55208585	     -2.13027837	      2.21162541	    -22.33533327	     15.21873060	      5.80593225	     21.31039135	     -8.23899775	      0.83891104	     -8.14828901
      0.60450000	      0.19939700	     -0.55952899	      7.79296543	     -0.66902445	      0.88173468	      0.30349289	     27.10267387	      2.19341831	     -6.69372323	    -16.10104779	     -0.66017992	     -7.19027483	      6.78249350	    -16.31078268	     -2.30983331	      2.03397372	    -23.56281256	     14.65332436	      5.82500399	     21.40716702	     -8.15091616	      1.03905208	     -7.96992396
      0.60866667	      0.19424185	     -0.66142136	      7.73234233	     -0.66283884	      0.88130496	      0.30402403	     27.29577506	      2.39176006	     -6.56344804	    -17.19863585	     -0.91570500	     -7.54600805	      6.76646855	    -16.02998561	     -2.48923767	      1.83473903	    -24.86651199	     14.08568431	      5.86473710	     21.61577612	     -8.07351989	      1.23134992	     -7.76531446
      0.61283333	      0.19499856	     -0.76592615	      7.67382870	     -0.65662438	      0.88095414	      0.30455354	     27.47410829	      2.58731746	     -6.46312430	    -18.29531633	     -1.08232649	     -7.80949925	      6.74780351	    -15.73109757	     -2.67630893	      1.63054162	    -26.19153694	     13.40367039	      5.87324695	     21.86734863	     -7.99106405	      1.43554302	     -7.59378049
      0.61700000	      0.23994694	     -0.90220286	      7.61354103	     -0.65036224	      0.88071764	      0.30510921	     27.58250726	      2.82322584	     -6.38339040	    -19.35532360	     -1.17262284	     -8.05593016	      6.37116113	    -15.45815683	     -2.91726558	      1.37984013	    -27.53032188	     12.59067423	      5.83037744	     26.66606065	     -7.96355083	      1.68769683	     -7.41881348
      0.62116667	      0.24772991	     -1.00656582	      7.56455078	     -0.64415101	      0.88047766	      0.30562475	     27.73880586	      3.00234282	     -6.34450794	    -20.44365685	     -1.18724717	     -8.16251837	      6.37180301	    -15.10527200	     -3.10979809	      1.20412891	    -28.93695854	     11.77089148	      5.78299618	     26.71340069	     -7.88973032	      1.88831793	     -7.29002838
      0.62533333	      0.27368821	     -1.12117371	      7.51625881	     -0.63793215	      0.88030886	      0.30615344	     27.85892367	      3.19229152	     -6.32512759	    -21.50560819	     -1.13165951	     -8.23887571	      6.36577133	    -14.73770080	     -3.32511507	      1.00353080	    -30.38580858	     10.90496335	      5.73621236	     26.80645008	     -7.83969023	      2.10371555	     -7.15073738
      0.62950000	      0.31217177	     -1.24353249	      7.47349250	     -0.63172009	      0.88020667	      0.30668501	     27.94522588	      3.38641539	     -6.33076260	    -22.53182368	     -1.01059550	     -8.26079347	      6.35371610	    -14.34867132	     -3.55651303	      0.80711426	    -31.87736437	      9.99230055	      5.67097305	     26.93361813	     -7.80490803	      2.32792031	     -7.02076979
      0.63366667	      0.36087791	     -1.37020556	      7.43499341	     -0.62551185	      0.88015515	      0.30721563	     28.00383374	      3.57970351	     -6.36653759	    -23.53273041	     -0.81683948	     -8.23187665	      6.33289410	    -13.93900813	     -3.80351863	      0.60039773	    -33.40515521	      9.01867836	      5.60148994	     27.11084775	     -7.78115387	      2.55823696	     -6.89575302
      0.63783333	      0.42547644	     -1.48174007	      7.42774334	     -0.61933070	      0.88020517	      0.30768574	     28.02092230	      3.73565134	     -6.46849537	    -24.50168112	     -0.54804208	     -8.12616323	      5.82658519	    -13.51578382	     -4.03660539	      0.46070378	    -34.93609941	      7.91426660	      5.39758100	     30.03096673	     -7.78440856	      2.77816249	     -6.77971430
